#!OML:ASF F:\VICON\USERDATA\INSTALL\rory3\rory3.ASF
:FULLY-SPECIFIED
:DEGREES
2347
root -4.51368 18.048 -0.597083 175.986 66.7118 156.065
lowerback 12.2019 -0.70359 0.764974
upperback 6.77996 0.00694148 8.37264
thorax 0.302515 0.174317 8.45474
lowerneck -11.4194 -11.7345 -7.76532
upperneck 32.3359 -15.5649 6.32622
head 14.1088 -6.43909 1.45049
rclavicle -1.27222e-014 4.13472e-014
rhumerus 8.35249 -28.9065 -75.0578
rradius 31.8193
rwrist -20.8376
rhand -25.1968 -19.8785
rfingers 7.12502
rthumb 1.32151 -49.8541
lclavicle -1.27222e-014 4.13472e-014
lhumerus -9.17506 -53.3405 96.1721
lradius 67.1694
lwrist 70.7524
lhand -8.31621 51.5366
lfingers 7.12502
lthumb 17.6046 -999.24
rfemur -40.9482 -10.8693 14.8745
rtibia 30.2181
rfoot -8.7236 -6.80181
rtoes 19.4518
lfemur -14.9374 -3.40084 -21.9458
ltibia 29.3421
lfoot -7.29735 -8.80635
ltoes -28.2663
2348
root -4.57233 18.0334 -0.613467 176.21 66.6684 156.086
lowerback 12.1124 -0.856189 0.794387
upperback 6.7088 -0.216525 8.1754
thorax 0.303603 0.0592388 8.2439
lowerneck -11.4938 -11.5524 -7.52418
upperneck 32.4403 -15.3472 6.26134
head 14.1184 -6.32161 1.42395
rclavicle 5.40694e-014 1.43125e-013
rhumerus 8.54986 -30.298 -74.1587
rradius 31.5423
rwrist -20.1888
rhand -26.7613 -20.1553
rfingers 7.12502
rthumb -0.189543 -50.135
lclavicle 5.40694e-014 1.43125e-013
lhumerus -8.56806 -54.657 96.0611
lradius 67.8536
lwrist 70.3663
lhand -8.10511 51.4973
lfingers 7.12502
lthumb 17.8077 -999.298
rfemur -41.3987 -11.2542 14.9571
rtibia 30.2089
rfoot -8.43883 -6.7048
rtoes 19.8838
lfemur -14.5805 -2.82858 -22.1373
ltibia 28.3441
lfoot -6.67654 -9.69876
ltoes -28.2995
2349
root -4.62915 18.0139 -0.631514 176.293 66.7004 155.915
lowerback 11.9877 -0.946868 0.67474
upperback 6.60177 -0.373614 8.03916
thorax 0.278687 -0.0273162 8.17932
lowerneck -11.4236 -11.4091 -7.56964
upperneck 32.4634 -15.1633 6.3463
head 14.1103 -6.24018 1.50166
rclavicle -7.31528e-014 -9.54166e-015
rhumerus 8.94054 -32.393 -73.5173
rradius 31.186
rwrist -18.6995
rhand -27.7976 -20.3883
rfingers 7.12502
rthumb -1.19041 -50.3647
lclavicle -7.31528e-014 -9.54166e-015
lhumerus -8.1503 -55.8694 96.3088
lradius 68.5321
lwrist 70.3031
lhand -7.29708 51.2123
lfingers 7.12502
lthumb 18.5851 -999.656
rfemur -41.9192 -11.7169 15.048
rtibia 30.2274
rfoot -8.06965 -6.38541
rtoes 20.3028
lfemur -14.2116 -2.58646 -22.4223
ltibia 27.2607
lfoot -6.02139 -10.0954
ltoes -28.8333
2350
root -4.68632 17.9997 -0.652452 176.39 66.678 155.9
lowerback 11.9799 -1.10607 0.682677
upperback 6.54449 -0.597549 7.88473
thorax 0.249593 -0.14139 8.03037
lowerneck -11.5039 -11.2765 -7.53131
upperneck 32.5598 -14.9845 6.32791
head 14.1483 -6.15796 1.51628
rclavicle -8.74653e-014 3.49861e-014
rhumerus 9.54551 -34.9911 -73.3242
rradius 30.9683
rwrist -16.1283
rhand -28.5795 -20.706
rfingers 7.12502
rthumb -1.94555 -50.6769
lclavicle -8.74653e-014 3.49861e-014
lhumerus -7.52609 -57.1012 96.2282
lradius 69.3955
lwrist 70.1384
lhand -6.13131 51.2834
lfingers 7.12502
lthumb 19.7061 -999.695
rfemur -42.2249 -11.8295 14.9608
rtibia 30.2482
rfoot -7.93655 -6.38813
rtoes 20.2334
lfemur -13.6817 -2.84191 -22.6139
ltibia 26.0625
lfoot -5.06217 -10.2685
ltoes -28.867
2351
root -4.73853 17.9866 -0.683273 176.741 66.7923 156.314
lowerback 11.9033 -1.37633 0.94178
upperback 6.65183 -0.941389 7.73195
thorax 0.440718 -0.308822 7.7495
lowerneck -11.8145 -10.9429 -7.28766
upperneck 32.6971 -14.5061 6.10896
head 14.1855 -5.94447 1.46134
rclavicle -6.67916e-014 -4.77083e-014
rhumerus 9.87198 -35.8304 -72.7747
rradius 31.0072
rwrist -14.8869
rhand -30.0836 -21.4654
rfingers 7.12502
rthumb -3.39819 -51.4181
lclavicle -6.67916e-014 -4.77083e-014
lhumerus -6.52498 -58.163 95.4963
lradius 70.6202
lwrist 70.2817
lhand -3.95446 51.7655
lfingers 7.12502
lthumb 21.7977 -999.442
rfemur -42.2866 -11.2376 14.6804
rtibia 30.3041
rfoot -8.31132 -6.93367
rtoes 20.5902
lfemur -12.938 -3.19289 -22.648
ltibia 24.7447
lfoot -4.13628 -10.332
ltoes -28.8305
2352
root -4.77975 17.9707 -0.739442 176.551 67.0979 156.584
lowerback 11.8505 -1.61827 1.30246
upperback 7.05979 -1.22542 7.63539
thorax 0.924881 -0.439415 7.46523
lowerneck -12.0303 -10.6071 -7.25303
upperneck 32.5667 -14.0203 6.03513
head 14.1185 -5.75116 1.50076
rclavicle 6.20208e-014 -1.145e-013
rhumerus 10.3598 -36.1271 -72.0209
rradius 31.0763
rwrist -14.5815
rhand -32.1741 -21.8313
rfingers 7.12502
rthumb -5.41685 -51.742
lclavicle 6.20208e-014 -1.145e-013
lhumerus -5.15321 -58.8661 94.82
lradius 71.6776
lwrist 70.5089
lhand -8.33013 51.5218
lfingers 7.12502
lthumb 17.5912 -999.254
rfemur -41.9616 -10.9028 14.4031
rtibia 30.3509
rfoot -8.38737 -7.07662
rtoes 20.8479
lfemur -11.6603 -3.97061 -22.8791
ltibia 23.3867
lfoot -3.67561 -9.80327
ltoes -29.0106
2353
root -4.85363 17.9586 -0.732447 176.458 66.928 156.149
lowerback 11.9912 -1.69435 0.681815
upperback 6.83285 -1.38988 7.61657
thorax 0.648122 -0.54361 7.82837
lowerneck -12.001 -10.4663 -7.11794
upperneck 32.598 -13.8262 5.94
head 14.086 -5.66569 1.47834
rclavicle -3.49861e-014 1.74931e-014
rhumerus 10.6114 -37.5735 -71.5033
rradius 31.1107
rwrist -13.2666
rhand -33.6474 -21.9013
rfingers 7.12502
rthumb -6.83915 -51.7708
lclavicle -3.49861e-014 1.74931e-014
lhumerus -4.71885 -59.596 95.137
lradius 72.5045
lwrist 70.4975
lhand -7.96442 51.6818
lfingers 7.12502
lthumb 17.9431 -999.126
rfemur -42.5837 -11.2659 14.3196
rtibia 30.3935
rfoot -8.21527 -7.08103
rtoes 21.4144
lfemur -11.4618 -3.76393 -23.1336
ltibia 22.0802
lfoot -3.44749 -10.6769
ltoes -27.278
2354
root -4.92661 17.9496 -0.729034 176.661 66.9125 156.007
lowerback 12.2258 -1.73701 0.16142
upperback 6.48944 -1.49649 7.63542
thorax 0.190894 -0.61039 8.17503
lowerneck -11.9435 -10.3965 -7.10322
upperneck 32.8544 -13.6691 5.74829
head 14.1548 -5.61065 1.43265
rclavicle 7.95139e-015 1.43125e-014
rhumerus 10.6851 -38.8278 -70.8919
rradius 31.2503
rwrist -12.3244
rhand -34.9503 -22.0655
rfingers 7.12502
rthumb -8.09678 -51.8904
lclavicle 7.95139e-015 1.43125e-014
lhumerus -4.82481 -60.2051 95.7982
lradius 73.4102
lwrist 69.9094
lhand -6.70273 52.1405
lfingers 7.12502
lthumb 19.1567 -998.783
rfemur -43.234 -11.3157 14.2921
rtibia 30.4385
rfoot -8.13361 -7.25744
rtoes 22.1363
lfemur -11.3319 -3.47519 -23.2948
ltibia 20.8704
lfoot -3.9086 -11.0282
ltoes -25.07
2355
root -4.99185 17.944 -0.741367 176.965 66.9995 156.138
lowerback 12.3079 -1.87132 -0.153281
upperback 6.32599 -1.70409 7.70491
thorax 0.0188992 -0.722546 8.46592
lowerneck -11.945 -10.1681 -7.06976
upperneck 32.9936 -13.2222 5.34771
head 14.1375 -5.46372 1.34823
rclavicle -1.74931e-014 -6.36111e-015
rhumerus 10.9075 -39.2954 -70.3356
rradius 31.5595
rwrist -12.6102
rhand -36.9563 -22.3323
rfingers 7.12502
rthumb -10.0325 -52.0732
lclavicle -1.74931e-014 -6.36111e-015
lhumerus -4.72924 -60.4402 96.1672
lradius 74.2488
lwrist 68.8449
lhand -5.64601 52.1089
lfingers 7.12502
lthumb 20.1726 -998.919
rfemur -43.7149 -11.4568 14.4068
rtibia 30.4927
rfoot -7.9095 -7.29286
rtoes 22.2116
lfemur -11.0468 -3.30895 -23.4144
ltibia 19.814
lfoot -4.7285 -10.5183
ltoes -26.0946
2356
root -5.05409 17.9287 -0.760329 176.645 67.1373 155.777
lowerback 12.4561 -1.97623 -0.45104
upperback 6.22668 -1.88039 7.61833
thorax -0.131203 -0.818146 8.57355
lowerneck -12.0703 -9.85917 -7.09265
upperneck 33.2702 -12.738 5.24776
head 14.2424 -5.25868 1.39296
rclavicle -3.18055e-015 -3.18055e-014
rhumerus 11.0941 -39.552 -70.1034
rradius 31.9003
rwrist -12.6591
rhand -39.473 -22.4532
rfingers 7.12502
rthumb -12.4597 -52.0617
lclavicle -3.18055e-015 -3.18055e-014
lhumerus -4.70994 -60.5561 96.6174
lradius 74.8816
lwrist 68.026
lhand -4.47335 52.0056
lfingers 7.12502
lthumb 21.2994 -999.145
rfemur -44.0329 -11.746 14.3825
rtibia 30.4791
rfoot -7.53696 -7.27125
rtoes 21.9605
lfemur -10.6155 -3.15603 -23.7915
ltibia 18.9437
lfoot -5.38106 -9.61477
ltoes -27.7202
